<?xml version="1.0" encoding="UTF-8"?>
<svg version="1.1" xmlns="http://www.w3.org/2000/svg" width="583" height="250">
<path d="M0 0 C192.39 0 384.78 0 583 0 C583 82.5 583 165 583 250 C390.61 250 198.22 250 0 250 C0 167.5 0 85 0 0 Z " fill="#FEFEFE" transform="translate(0,0)"/>
<path d="M0 0 C19.5898007 -0.70140697 37.20354582 2.218617 55.92675781 7.91113281 C57.48692627 8.37132812 57.48692627 8.37132812 59.07861328 8.84082031 C67.5638013 11.57289323 73.75829146 15.41816631 78.23876953 23.31176758 C81.66342921 30.45110089 81.23468123 37.82526241 81.14550781 45.55175781 C81.1437921 47.14060373 81.14386706 48.72945247 81.14562988 50.31829834 C81.14398409 53.63679371 81.12543229 56.95460753 81.09375 60.27294922 C81.05420517 64.48650144 81.04969464 68.69915839 81.05721283 72.91286087 C81.06031215 76.19213789 81.04805596 79.47122086 81.03108215 82.75045013 C81.02414195 84.30187509 81.02091646 85.85332202 81.02177429 87.40476227 C81.00500286 107.3697903 76.7780662 121.536453 62.53613281 136.19628906 C49.69338074 148.92572273 26.07018677 166.53593111 7.44042969 166.79467773 C6.28897461 166.7595105 6.28897461 166.7595105 5.11425781 166.72363281 C3.87579102 166.69716675 3.87579102 166.69716675 2.61230469 166.67016602 C-4.61662428 166.36094108 -10.12189901 164.65336205 -16.44824219 161.09863281 C-17.15980469 160.7120752 -17.87136719 160.32551758 -18.60449219 159.92724609 C-28.81119652 154.36853726 -38.39499383 148.40972647 -47.44824219 141.09863281 C-48.34542969 140.41220703 -48.34542969 140.41220703 -49.26074219 139.71191406 C-59.54052216 131.6540657 -67.87749974 119.97148601 -70.44824219 107.09863281 C-70.9041607 101.12938698 -70.91999473 95.17652346 -70.91699219 89.19238281 C-70.9241072 87.45942951 -70.93180813 85.72647852 -70.94006348 83.99353027 C-70.95344969 80.37599115 -70.95510285 76.7586701 -70.94921875 73.14111328 C-70.94331809 68.52792015 -70.97395636 63.91577777 -71.01433563 59.30278778 C-71.04030172 55.72860168 -71.04308221 52.15466597 -71.03944397 48.58039856 C-71.04112586 46.88049167 -71.05067775 45.18057203 -71.06858826 43.48075867 C-71.16494599 33.20971189 -70.90950883 24.37741726 -63.83361816 16.24230957 C-50.46785957 2.80309494 -17.8761353 0.72017936 0 0 Z " fill="#248B72" transform="translate(145.4482421875,50.9013671875)"/>
<path d="M0 0 C39.23672858 4.90459107 39.23672858 4.90459107 49.61019897 12.11999512 C51.71933782 14.97305916 51.45063013 17.91061351 51.45166016 21.32617188 C51.46334229 22.06971924 51.47502441 22.8132666 51.48706055 23.5793457 C51.52070357 26.04261121 51.53139302 28.50527478 51.5390625 30.96875 C51.55124708 32.68689178 51.56373323 34.40503145 51.57650757 36.12316895 C51.59900595 39.73124956 51.60853919 43.3391188 51.61083984 46.94726562 C51.61609915 51.54632656 51.66726974 56.1435984 51.73035622 60.74217987 C51.77146805 64.29584464 51.78048392 67.84908826 51.78095627 71.40296936 C51.7863068 73.09651701 51.80302331 74.79007169 51.83180618 76.48338318 C51.99916838 87.23365225 51.214196 94.41342774 44 103 C42.80117187 104.51400391 42.80117187 104.51400391 41.578125 106.05859375 C29.7325913 118.16250318 15.04694964 125.47652518 0 133 C0 89.11 0 45.22 0 0 Z " fill="#FBFEFD" transform="translate(158,67)"/>
<path d="M0 0 C0 43.23 0 86.46 0 131 C-3.97500154 130.20499969 -5.87865077 129.73526782 -9.1875 127.84765625 C-9.9623877 127.40607178 -10.73727539 126.9644873 -11.53564453 126.50952148 C-12.34888184 126.03200439 -13.16211914 125.5544873 -14 125.0625 C-14.84288574 124.56886963 -15.68577148 124.07523926 -16.55419922 123.56665039 C-30.49577335 115.25721723 -45.54668465 105.03262135 -51 89 C-51.71251978 83.25822494 -51.68160247 77.57112305 -51.62890625 71.79296875 C-51.62973637 70.13771916 -51.63220113 68.48246966 -51.63621521 66.82722473 C-51.63905878 63.37682973 -51.62450653 59.92708911 -51.59692383 56.47680664 C-51.56270844 52.06046799 -51.56891701 47.64528785 -51.5875864 43.22889233 C-51.59816092 39.81871408 -51.58921685 36.40880474 -51.57420158 32.9986515 C-51.5690316 31.37000642 -51.56948718 29.74133314 -51.57574654 28.11269188 C-51.58120989 25.83908054 -51.56079611 23.56712374 -51.53344727 21.29370117 C-51.52724869 20.00259933 -51.52105011 18.7114975 -51.5146637 17.38127136 C-50.91447346 13.43810212 -49.78664446 11.79891396 -47 9 C-39.86580494 5.16692171 -31.37888715 3.78710805 -23.5 2.25 C-21.92412109 1.91935547 -21.92412109 1.91935547 -20.31640625 1.58203125 C-18.75212891 1.27072266 -18.75212891 1.27072266 -17.15625 0.953125 C-16.23650391 0.76911133 -15.31675781 0.58509766 -14.36914062 0.39550781 C-9.61029103 -0.16313975 -4.79152758 0 0 0 Z " fill="#FDFEFE" transform="translate(142,68)"/>
<path d="M0 0 C1.99279829 -0.00959229 3.98545548 -0.04073135 5.97802734 -0.07226562 C14.59227153 -0.10710584 22.13566497 0.0097535 28.96630859 5.67773438 C32.7051888 10.32300978 33.637472 13.15360034 33.02880859 19.24023438 C31.60078835 23.81502978 29.75656027 27.16767005 25.59130859 29.67773438 C19.91017412 32.16946002 14.86407005 32.37415609 8.71630859 32.30273438 C7.97574219 32.29822266 7.23517578 32.29371094 6.47216797 32.2890625 C4.65767961 32.27735612 2.84323325 32.25942335 1.02880859 32.24023438 C1.04041016 33.02269531 1.05201172 33.80515625 1.06396484 34.61132812 C1.07298828 35.62324219 1.08201172 36.63515625 1.09130859 37.67773438 C1.10291016 38.68707031 1.11451172 39.69640625 1.12646484 40.73632812 C1.02880859 43.24023438 1.02880859 43.24023438 0.02880859 44.24023438 C-1.96918712 44.33897254 -3.97076299 44.36995237 -5.97119141 44.36523438 C-7.06431641 44.3678125 -8.15744141 44.37039062 -9.28369141 44.37304688 C-11.97119141 44.24023438 -11.97119141 44.24023438 -12.97119141 43.24023438 C-13.07236061 40.14941972 -13.11087698 37.08140882 -13.10400391 33.99023438 C-13.10496063 33.06178711 -13.10591736 32.13333984 -13.10690308 31.17675781 C-13.10758496 29.20963473 -13.10573012 27.24250941 -13.1015625 25.27539062 C-13.09621436 22.25320411 -13.10150723 19.23116623 -13.10791016 16.20898438 C-13.10724938 14.30273404 -13.10596822 12.39648381 -13.10400391 10.49023438 C-13.10602814 9.57983398 -13.10805237 8.66943359 -13.11013794 7.73144531 C-13.07264465 -2.23098835 -8.89811999 0.02588544 0 0 Z " fill="#268A72" transform="translate(386.97119140625,149.759765625)"/>
<path d="M0 0 C2.06580695 -0.01703907 4.12993865 -0.06087457 6.1953125 -0.10522461 C14.4895854 -0.20334635 21.51766967 0.27530787 28.20898438 5.56616211 C31.57308464 8.98806074 32.47464184 12.50290195 32.73046875 17.12329102 C32.43707216 22.06657901 30.22756636 24.68307336 26.7890625 28.04516602 C20.89216267 32.20768354 15.69681344 32.57374782 8.7265625 32.42016602 C7.5509375 32.40663086 7.5509375 32.40663086 6.3515625 32.39282227 C4.43476195 32.36944665 2.51812059 32.33358255 0.6015625 32.29516602 C0.61316406 33.07762695 0.62476563 33.86008789 0.63671875 34.66625977 C0.64574219 35.67817383 0.65476562 36.69008789 0.6640625 37.73266602 C0.67566406 38.74200195 0.68726563 39.75133789 0.69921875 40.79125977 C0.6015625 43.29516602 0.6015625 43.29516602 -0.3984375 44.29516602 C-2.39643322 44.39390418 -4.39800908 44.42488401 -6.3984375 44.42016602 C-7.4915625 44.42274414 -8.5846875 44.42532227 -9.7109375 44.42797852 C-12.3984375 44.29516602 -12.3984375 44.29516602 -13.3984375 43.29516602 C-13.4996067 40.20435136 -13.53812308 37.13634046 -13.53125 34.04516602 C-13.53220673 33.11671875 -13.53316345 32.18827148 -13.53414917 31.23168945 C-13.53483105 29.26456637 -13.53297622 27.29744105 -13.52880859 25.33032227 C-13.52346045 22.30813575 -13.52875332 19.28609787 -13.53515625 16.26391602 C-13.53449547 14.35766569 -13.53321431 12.45141545 -13.53125 10.54516602 C-13.53327423 9.63476562 -13.53529846 8.72436523 -13.53738403 7.78637695 C-13.49941982 -2.30118717 -8.99567467 0.05159036 0 0 Z " fill="#268C73" transform="translate(439.3984375,149.704833984375)"/>
<path d="M0 0 C1.093125 0.00257812 2.18625 0.00515625 3.3125 0.0078125 C4.405625 0.00523438 5.49875 0.00265625 6.625 0 C9.3125 0.1328125 9.3125 0.1328125 10.3125 1.1328125 C10.38575436 3.831503 10.40472351 6.49783806 10.375 9.1953125 C10.354375 11.8146875 10.33375 14.4340625 10.3125 17.1328125 C16.2525 17.1328125 22.1925 17.1328125 28.3125 17.1328125 C28.27292843 11.91217975 28.27292843 11.91217975 28.22241211 6.69165039 C28.21526055 4.83847491 28.2622148 2.98531942 28.3125 1.1328125 C29.3125 0.1328125 29.3125 0.1328125 32 0 C33.093125 0.00257812 34.18625 0.00515625 35.3125 0.0078125 C36.405625 0.00523438 37.49875 0.00265625 38.625 0 C41.3125 0.1328125 41.3125 0.1328125 42.3125 1.1328125 C42.4136692 4.22362715 42.45218558 7.29163805 42.4453125 10.3828125 C42.44626923 11.31125977 42.44722595 12.23970703 42.44821167 13.19628906 C42.44889355 15.16341215 42.44703872 17.13053746 42.44287109 19.09765625 C42.43752295 22.11984276 42.44281582 25.14188065 42.44921875 28.1640625 C42.44855797 30.07031283 42.44727681 31.97656307 42.4453125 33.8828125 C42.44733673 34.79321289 42.44936096 35.70361328 42.45144653 36.64160156 C42.42744969 43.01786281 42.42744969 43.01786281 41.3125 44.1328125 C37.31029347 44.27636367 33.31808317 44.17497653 29.3125 44.1328125 C29.3125 38.8528125 29.3125 33.5728125 29.3125 28.1328125 C23.0425 28.1328125 16.7725 28.1328125 10.3125 28.1328125 C10.3520679 33.02434721 10.3520679 33.02434721 10.40258789 37.91577148 C10.40974913 39.65502967 10.36274702 41.39426554 10.3125 43.1328125 C9.3125 44.1328125 9.3125 44.1328125 6.625 44.265625 C5.531875 44.26304688 4.43875 44.26046875 3.3125 44.2578125 C2.219375 44.26039062 1.12625 44.26296875 0 44.265625 C-2.6875 44.1328125 -2.6875 44.1328125 -3.6875 43.1328125 C-3.7886692 40.04199785 -3.82718558 36.97398695 -3.8203125 33.8828125 C-3.82126923 32.95436523 -3.82222595 32.02591797 -3.82321167 31.06933594 C-3.82389355 29.10221285 -3.82203872 27.13508754 -3.81787109 25.16796875 C-3.81252295 22.14578224 -3.81781582 19.12374435 -3.82421875 16.1015625 C-3.82355797 14.19531217 -3.82227681 12.28906193 -3.8203125 10.3828125 C-3.82233673 9.47241211 -3.82436096 8.56201172 -3.82644653 7.62402344 C-3.79846023 0.1877146 -3.79846023 0.1877146 0 0 Z " fill="#228970" transform="translate(478.6875,67.8671875)"/>
<path d="M0 0 C2.56702995 -0.21718702 5.11570619 -0.37465583 7.6875 -0.5 C8.40873047 -0.56703125 9.12996094 -0.6340625 9.87304688 -0.703125 C12.12796817 -0.78549655 13.84633755 -0.68207218 16 0 C18.34008121 2.75387606 19.51138713 4.76677258 21 8 C21.55856689 9.1859375 22.11713379 10.371875 22.69262695 11.59375 C24.29781786 15.05992319 25.83845893 18.55148523 27.35864258 22.05566406 C28.31817236 24.26304918 29.29223947 26.46362421 30.26757812 28.6640625 C30.88369128 30.07253259 31.49895651 31.48137395 32.11328125 32.890625 C32.40382889 33.54484436 32.69437653 34.19906372 32.99372864 34.87310791 C34.43341734 38.22249253 35 40.27772412 35 44 C30.38 44 25.76 44 21 44 C20.01 41.69 19.02 39.38 18 37 C11.4 36.67 4.8 36.34 -2 36 C-2.66 38.31 -3.32 40.62 -4 43 C-5 44 -5 44 -7.94140625 44.09765625 C-9.13636719 44.08605469 -10.33132813 44.07445312 -11.5625 44.0625 C-13.35880859 44.04896484 -13.35880859 44.04896484 -15.19140625 44.03515625 C-16.11824219 44.02355469 -17.04507812 44.01195312 -18 44 C-17.40662366 39.30559511 -16.09312619 35.46098033 -14.19921875 31.1328125 C-13.92157181 30.49439423 -13.64392487 29.85597595 -13.35786438 29.19821167 C-12.77176307 27.85390459 -12.18244682 26.51099506 -11.59008789 25.16943359 C-10.69440961 23.14065083 -9.80825323 21.1079288 -8.92382812 19.07421875 C-6.11103231 12.63132978 -3.23434618 6.24508324 0 0 Z " fill="#278B73" transform="translate(334,68)"/>
<path d="M0 0 C2.7195153 -0.4436945 5.08468033 -0.6462062 7.8125 -0.6875 C8.52470703 -0.74099609 9.23691406 -0.79449219 9.97070312 -0.84960938 C12.20943689 -0.88895807 13.88337642 -0.73726032 16 0 C18.32072753 2.75009761 19.5101071 4.78270324 21 8 C21.55872803 9.1856958 22.11745605 10.3713916 22.69311523 11.59301758 C24.297839 15.05954843 25.83840748 18.55136663 27.35864258 22.05566406 C28.31817236 24.26304918 29.29223947 26.46362421 30.26757812 28.6640625 C30.88369128 30.07253259 31.49895651 31.48137395 32.11328125 32.890625 C32.40382889 33.54484436 32.69437653 34.19906372 32.99372864 34.87310791 C34.43341734 38.22249253 35 40.27772412 35 44 C30.38 44 25.76 44 21 44 C20.01 41.69 19.02 39.38 18 37 C11.4 36.67 4.8 36.34 -2 36 C-2.66 38.31 -3.32 40.62 -4 43 C-5 44 -5 44 -7.94140625 44.09765625 C-9.13636719 44.08605469 -10.33132813 44.07445312 -11.5625 44.0625 C-13.35880859 44.04896484 -13.35880859 44.04896484 -15.19140625 44.03515625 C-16.11824219 44.02355469 -17.04507812 44.01195312 -18 44 C-17.39121253 38.82708068 -15.7535706 34.58580779 -13.69140625 29.86328125 C-13.36462387 29.10202438 -13.03784149 28.34076752 -12.70115662 27.55644226 C-12.01248697 25.95578922 -11.32061861 24.35650901 -10.62573242 22.75854492 C-9.56266932 20.31288953 -8.51004335 17.86294429 -7.45898438 15.41210938 C-6.78706484 13.85390499 -6.11455895 12.2959533 -5.44140625 10.73828125 C-5.12675919 10.00700516 -4.81211212 9.27572906 -4.4879303 8.52229309 C-3.16574164 5.48932427 -1.84059425 2.76089138 0 0 Z " fill="#268B73" transform="translate(334,150)"/>
<path d="M0 0 C1.093125 0.00257812 2.18625 0.00515625 3.3125 0.0078125 C4.405625 0.00523438 5.49875 0.00265625 6.625 0 C9.3125 0.1328125 9.3125 0.1328125 10.3125 1.1328125 C10.45896214 3.24179185 10.53997892 5.35537504 10.59375 7.46875 C10.63113281 8.76039062 10.66851562 10.05203125 10.70703125 11.3828125 C10.74271542 12.7577989 10.77786572 14.13279925 10.8125 15.5078125 C10.88022174 18.18250484 10.95399966 20.85678993 11.03125 23.53125 C11.06154297 24.72411621 11.09183594 25.91698242 11.12304688 27.14599609 C11.18812798 30.18559551 11.18812798 30.18559551 12.3125 33.1328125 C16.9325 33.1328125 21.5525 33.1328125 26.3125 33.1328125 C27.43359594 29.76952468 27.50375235 27.07514689 27.59375 23.53125 C27.63113281 22.23703125 27.66851562 20.9428125 27.70703125 19.609375 C27.7607887 17.55080984 27.81289306 15.49220768 27.86474609 13.43359375 C27.91634945 11.44520752 27.97370661 9.4569732 28.03125 7.46875 C28.06154297 6.27813965 28.09183594 5.0875293 28.12304688 3.86083984 C28.3125 1.1328125 28.3125 1.1328125 29.3125 0.1328125 C31.31049572 0.03407434 33.31207158 0.00309451 35.3125 0.0078125 C36.405625 0.00523438 37.49875 0.00265625 38.625 0 C41.3125 0.1328125 41.3125 0.1328125 42.3125 1.1328125 C42.60454495 5.42143718 42.62671825 9.71614151 42.66259766 14.01342773 C42.67905807 15.45565031 42.7062158 16.89779472 42.74462891 18.33959961 C43.1326364 32.98435185 43.1326364 32.98435185 38.67138672 38.75610352 C36.96461376 40.48526139 35.44217702 41.64633702 33.1875 42.5703125 C32.52492188 42.85777344 31.86234375 43.14523438 31.1796875 43.44140625 C23.23251374 46.38418816 14.09823651 46.21298212 6.1796875 43.109375 C1.03216064 40.41715384 -1.48454744 36.33440053 -3.6875 31.1328125 C-4.04394531 27.71362305 -4.04394531 27.71362305 -4.015625 24.01953125 C-4.01375183 23.36451126 -4.01187866 22.70949127 -4.00994873 22.03462219 C-4.00327037 20.66227054 -3.98944067 19.28993653 -3.96875 17.91772461 C-3.93733002 15.80890381 -3.9277477 13.70082958 -3.921875 11.59179688 C-3.8437305 0.1899518 -3.8437305 0.1899518 0 0 Z " fill="#278C73" transform="translate(377.6875,67.8671875)"/>
<path d="M0 0 C0.85758911 -0.00315216 1.71517822 -0.00630432 2.59875488 -0.009552 C3.53102905 -0.00752777 4.46330322 -0.00550354 5.42382812 -0.00341797 C6.84979309 -0.00485306 6.84979309 -0.00485306 8.30456543 -0.00631714 C10.31876695 -0.00699904 12.33297065 -0.00514409 14.34716797 -0.00097656 C17.44178167 0.00437155 20.53625022 -0.00092124 23.63085938 -0.00732422 C25.58268261 -0.00666344 27.53450576 -0.00538228 29.48632812 -0.00341797 C30.88473938 -0.00645432 30.88473938 -0.00645432 32.31140137 -0.009552 C33.16899048 -0.00639984 34.02657959 -0.00324768 34.91015625 0 C35.66880981 0.00079559 36.42746338 0.00159119 37.20910645 0.00241089 C38.95507812 0.12939453 38.95507812 0.12939453 39.95507812 1.12939453 C40.05298382 2.62677577 40.08482677 4.12882345 40.08007812 5.62939453 C40.08394531 6.85142578 40.08394531 6.85142578 40.08789062 8.09814453 C39.95507812 10.12939453 39.95507812 10.12939453 38.95507812 11.12939453 C36.60194258 11.20211195 34.24674144 11.21310321 31.89257812 11.19189453 C30.60222656 11.18287109 29.311875 11.17384766 27.98242188 11.16455078 C26.98339844 11.15294922 25.984375 11.14134766 24.95507812 11.12939453 C24.96293335 12.57560181 24.96293335 12.57560181 24.97094727 14.05102539 C24.98899931 17.61612017 25.00051087 21.18121089 25.01000977 24.74633789 C25.01504952 26.29159219 25.02188132 27.8368417 25.03051758 29.38208008 C25.04259889 31.59864482 25.04830985 33.81514672 25.05273438 36.03173828 C25.05789566 36.72653793 25.06305695 37.42133759 25.06837463 38.13719177 C25.06857089 39.80168783 25.01696941 41.46604952 24.95507812 43.12939453 C23.95507812 44.12939453 23.95507812 44.12939453 21.04882812 44.26220703 C19.86289062 44.25962891 18.67695313 44.25705078 17.45507812 44.25439453 C16.26914062 44.25697266 15.08320313 44.25955078 13.86132812 44.26220703 C10.95507812 44.12939453 10.95507812 44.12939453 9.95507812 43.12939453 C9.86668142 40.75370934 9.83977507 38.40730779 9.85742188 36.03173828 C9.85883682 35.32287979 9.86025177 34.6140213 9.86170959 33.88368225 C9.8673237 31.61137741 9.8798785 29.33916978 9.89257812 27.06689453 C9.89759131 25.52978658 9.90215453 23.99267708 9.90625 22.45556641 C9.9172977 18.68013811 9.93457171 14.90478282 9.95507812 11.12939453 C8.95605469 11.14099609 7.95703125 11.15259766 6.92773438 11.16455078 C5.63738281 11.17357422 4.34703125 11.18259766 3.01757812 11.19189453 C1.72980469 11.20349609 0.44203125 11.21509766 -0.88476562 11.22705078 C-4.04492188 11.12939453 -4.04492188 11.12939453 -5.04492188 10.12939453 C-5.14282757 8.63201329 -5.17467052 7.12996561 -5.16992188 5.62939453 C-5.1725 4.81470703 -5.17507813 4.00001953 -5.17773438 3.16064453 C-4.93807563 -0.5047245 -3.23271982 0.00339012 0 0 Z " fill="#1F8B71" transform="translate(430.044921875,67.87060546875)"/>
<path d="M0 0 C1.65 0.33 3.3 0.66 5 1 C5 47.86 5 94.72 5 143 C3.35 143.33 1.7 143.66 0 144 C-1.3226006 141.3547988 -1.12590587 139.37667221 -1.12698364 136.41331482 C-1.12980347 135.22561493 -1.13262329 134.03791504 -1.13552856 132.81422424 C-1.13350433 131.50453171 -1.1314801 130.19483917 -1.12939453 128.84545898 C-1.13074897 127.45764113 -1.13252914 126.06982364 -1.13470459 124.68200684 C-1.13927346 120.90737619 -1.13749171 117.1327728 -1.1343255 113.35814166 C-1.1317996 109.41479082 -1.13414004 105.47144236 -1.13571167 101.52809143 C-1.13753247 94.90617451 -1.13512916 88.28426874 -1.13037109 81.66235352 C-1.1249264 73.99609213 -1.12669299 66.32985732 -1.1321975 58.66359657 C-1.13672848 52.09119356 -1.13737932 45.51879857 -1.13475883 38.9463945 C-1.13319626 35.01666678 -1.13300178 31.08695158 -1.13629532 27.15722466 C-1.1391739 23.46451186 -1.1371986 19.77183351 -1.13140106 16.07912445 C-1.12943786 14.06949919 -1.13242733 12.05987102 -1.13552856 10.05024719 C-1.13270874 8.86536713 -1.12988892 7.68048706 -1.12698364 6.45970154 C-1.12660662 5.42343848 -1.12622959 4.38717543 -1.12584114 3.31951046 C-1 1 -1 1 0 0 Z " fill="#3C917C" transform="translate(276,65)"/>
<path d="M0 0 C0.85758911 -0.00315216 1.71517822 -0.00630432 2.59875488 -0.009552 C3.53102905 -0.00752777 4.46330322 -0.00550354 5.42382812 -0.00341797 C6.84979309 -0.00485306 6.84979309 -0.00485306 8.30456543 -0.00631714 C10.31876695 -0.00699904 12.33297065 -0.00514409 14.34716797 -0.00097656 C17.44178167 0.00437155 20.53625022 -0.00092124 23.63085938 -0.00732422 C25.58268261 -0.00666344 27.53450576 -0.00538228 29.48632812 -0.00341797 C30.88473938 -0.00645432 30.88473938 -0.00645432 32.31140137 -0.009552 C33.16899048 -0.00639984 34.02657959 -0.00324768 34.91015625 0 C35.66880981 0.00079559 36.42746338 0.00159119 37.20910645 0.00241089 C38.95507812 0.12939453 38.95507812 0.12939453 39.95507812 1.12939453 C40.05298382 2.62677577 40.08482677 4.12882345 40.08007812 5.62939453 C40.08394531 6.85142578 40.08394531 6.85142578 40.08789062 8.09814453 C39.95507812 10.12939453 39.95507812 10.12939453 38.95507812 11.12939453 C36.60194258 11.20211195 34.24674144 11.21310321 31.89257812 11.19189453 C30.60222656 11.18287109 29.311875 11.17384766 27.98242188 11.16455078 C26.98339844 11.15294922 25.984375 11.14134766 24.95507812 11.12939453 C24.96293335 12.57560181 24.96293335 12.57560181 24.97094727 14.05102539 C24.98899931 17.61612017 25.00051087 21.18121089 25.01000977 24.74633789 C25.01504952 26.29159219 25.02188132 27.8368417 25.03051758 29.38208008 C25.04259889 31.59864482 25.04830985 33.81514672 25.05273438 36.03173828 C25.05789566 36.72653793 25.06305695 37.42133759 25.06837463 38.13719177 C25.06857089 39.80168783 25.01696941 41.46604952 24.95507812 43.12939453 C23.95507812 44.12939453 23.95507812 44.12939453 21.04882812 44.26220703 C19.86289062 44.25962891 18.67695313 44.25705078 17.45507812 44.25439453 C16.26914062 44.25697266 15.08320313 44.25955078 13.86132812 44.26220703 C10.95507812 44.12939453 10.95507812 44.12939453 9.95507812 43.12939453 C9.86668142 40.75370934 9.83977507 38.40730779 9.85742188 36.03173828 C9.85883682 35.32287979 9.86025177 34.6140213 9.86170959 33.88368225 C9.8673237 31.61137741 9.8798785 29.33916978 9.89257812 27.06689453 C9.89759131 25.52978658 9.90215453 23.99267708 9.90625 22.45556641 C9.9172977 18.68013811 9.93457171 14.90478282 9.95507812 11.12939453 C8.95605469 11.14099609 7.95703125 11.15259766 6.92773438 11.16455078 C5.63738281 11.17357422 4.34703125 11.18259766 3.01757812 11.19189453 C1.72980469 11.20349609 0.44203125 11.21509766 -0.88476562 11.22705078 C-4.04492188 11.12939453 -4.04492188 11.12939453 -5.04492188 10.12939453 C-5.14282757 8.63201329 -5.17467052 7.12996561 -5.16992188 5.62939453 C-5.1725 4.81470703 -5.17507813 4.00001953 -5.17773438 3.16064453 C-4.93807563 -0.5047245 -3.23271982 0.00339012 0 0 Z M-3.04492188 1.12939453 C-3.04492188 4.09939453 -3.04492188 7.06939453 -3.04492188 10.12939453 C3.88507813 10.62439453 3.88507813 10.62439453 10.95507812 11.12939453 C11.28507812 21.68939453 11.61507813 32.24939453 11.95507812 43.12939453 C15.58507812 43.12939453 19.21507812 43.12939453 22.95507812 43.12939453 C22.95507812 31.90939453 22.95507812 20.68939453 22.95507812 9.12939453 C27.90507812 9.12939453 32.85507812 9.12939453 37.95507812 9.12939453 C38.40229172 3.65114373 38.40229172 3.65114373 36.95507812 1.12939453 C23.75507813 1.12939453 10.55507813 1.12939453 -3.04492188 1.12939453 Z " fill="#59A08F" transform="translate(430.044921875,67.87060546875)"/>
<path d="M0 0 C2.08268593 -0.08126087 4.16628658 -0.13930839 6.25 -0.1875 C7.99023438 -0.23970703 7.99023438 -0.23970703 9.765625 -0.29296875 C13.25084947 0.02272187 14.59839865 0.49930345 17 3 C17.5 6 17.5 6 17 9 C14.59839865 11.50069655 13.25084947 11.97727813 9.765625 12.29296875 C8.60546875 12.25816406 7.4453125 12.22335938 6.25 12.1875 C5.07953125 12.16042969 3.9090625 12.13335937 2.703125 12.10546875 C1.81109375 12.07066406 0.9190625 12.03585938 0 12 C0 8.04 0 4.08 0 0 Z " fill="#F5FDFC" transform="translate(440,160)"/>
<path d="M0 0 C2.08268593 -0.08126087 4.16628658 -0.13930839 6.25 -0.1875 C7.99023438 -0.23970703 7.99023438 -0.23970703 9.765625 -0.29296875 C13.25084947 0.02272187 14.59839865 0.49930345 17 3 C17.5 6 17.5 6 17 9 C14.59839865 11.50069655 13.25084947 11.97727813 9.765625 12.29296875 C8.60546875 12.25816406 7.4453125 12.22335938 6.25 12.1875 C5.07953125 12.16042969 3.9090625 12.13335937 2.703125 12.10546875 C1.81109375 12.07066406 0.9190625 12.03585938 0 12 C0 8.04 0 4.08 0 0 Z " fill="#F5FDFC" transform="translate(388,160)"/>
<path d="M0 0 C0.33 0.99 0.66 1.98 1 3 C0.30958618 4.32112793 0.30958618 4.32112793 -0.39477539 5.66894531 C-2.29217797 9.60630816 -2.56083039 13.01219723 -2.68359375 17.296875 C-2.73343666 18.57023712 -2.73343666 18.57023712 -2.7842865 19.86932373 C-3.23406539 33.25113881 -3.1101043 46.65360627 -3.06866455 60.04125977 C-3.05825858 63.76968811 -3.05383073 67.49812369 -3.04882812 71.2265625 C-3.03824492 78.48439415 -3.02127951 85.74219096 -3 93 C-5.37062985 89.30625621 -5.30241346 85.69899013 -5.30639648 81.45263672 C-5.31472 80.69758347 -5.32304352 79.94253021 -5.33161926 79.16459656 C-5.3557016 76.66957421 -5.36449134 74.17481374 -5.37109375 71.6796875 C-5.38006501 69.93816044 -5.38918695 68.19663416 -5.39845276 66.45510864 C-5.41494303 62.80175914 -5.4226423 59.14850124 -5.42553711 55.49511719 C-5.43090542 50.83471449 -5.4685204 46.17518496 -5.51428127 41.515028 C-5.54417106 37.91511983 -5.55126332 34.3154183 -5.55226326 30.71539688 C-5.55644589 28.99872994 -5.56880084 27.28206126 -5.58978081 25.56551743 C-5.69608159 16.11160465 -5.60101299 8.08551615 0 0 Z " fill="#3B7F6E" transform="translate(80,69)"/>
<path d="M0 0 C1.65322266 0.01740234 1.65322266 0.01740234 3.33984375 0.03515625 C4.99693359 0.04869141 4.99693359 0.04869141 6.6875 0.0625 C7.54214844 0.07410156 8.39679688 0.08570312 9.27734375 0.09765625 C9.27734375 0.42765625 9.27734375 0.75765625 9.27734375 1.09765625 C5.64734375 1.75765625 2.01734375 2.41765625 -1.72265625 3.09765625 C-1.72265625 16.29765625 -1.72265625 29.49765625 -1.72265625 43.09765625 C1.90734375 43.09765625 5.53734375 43.09765625 9.27734375 43.09765625 C9.27734375 43.42765625 9.27734375 43.75765625 9.27734375 44.09765625 C7.29824977 44.12452178 5.31905404 44.14399 3.33984375 44.16015625 C2.23769531 44.17175781 1.13554687 44.18335938 0 44.1953125 C-2.72265625 44.09765625 -2.72265625 44.09765625 -3.72265625 43.09765625 C-3.82382545 40.0068416 -3.86234183 36.9388307 -3.85546875 33.84765625 C-3.85642548 32.91920898 -3.8573822 31.99076172 -3.85836792 31.03417969 C-3.8590498 29.0670566 -3.85719497 27.09993129 -3.85302734 25.1328125 C-3.8476792 22.11062599 -3.85297207 19.0885881 -3.859375 16.06640625 C-3.85871422 14.16015592 -3.85743306 12.25390568 -3.85546875 10.34765625 C-3.85749298 9.43725586 -3.85951721 8.52685547 -3.86160278 7.58886719 C-3.83355982 0.13750215 -3.83355982 0.13750215 0 0 Z " fill="#5FA191" transform="translate(478.72265625,67.90234375)"/>
<path d="M0 0 C0.66 0.33 1.32 0.66 2 1 C1.02404877 2.49775719 1.02404877 2.49775719 0.02838135 4.02577209 C-2.19724891 7.94105 -2.48511987 11.0512186 -2.45410156 15.58764648 C-2.45468567 16.31043289 -2.45526978 17.0332193 -2.45587158 17.77790833 C-2.45310742 20.14280957 -2.42209761 22.50641553 -2.390625 24.87109375 C-2.3831566 26.52018038 -2.3774665 28.16927593 -2.37347412 29.81837463 C-2.35826475 34.14058304 -2.31902427 38.46224639 -2.2746582 42.78424072 C-2.23360349 47.20178862 -2.21544141 51.61942533 -2.1953125 56.03710938 C-2.15252473 64.69165526 -2.08433134 73.34575966 -2 82 C-4.89120971 79.10879029 -4.26701716 77.01617171 -4.29052734 72.9675293 C-4.29724457 72.24375092 -4.30396179 71.51997253 -4.31088257 70.77426147 C-4.32992745 68.37417795 -4.33379031 65.97437321 -4.3359375 63.57421875 C-4.34236214 61.90753564 -4.34909025 60.24085368 -4.35610962 58.57417297 C-4.36809946 55.07619615 -4.37178882 51.5783182 -4.37060547 48.08032227 C-4.37040246 43.60108264 -4.39767802 39.12247877 -4.43214989 34.6433897 C-4.45440772 31.19895018 -4.45844332 27.75466375 -4.45738602 24.31015968 C-4.45974469 22.65915554 -4.46858323 21.00814735 -4.48405075 19.35721397 C-4.50368416 17.04457788 -4.49788378 14.73331326 -4.48583984 12.4206543 C-4.4901149 10.44780708 -4.4901149 10.44780708 -4.49447632 8.43510437 C-3.92644051 4.48898562 -2.73749032 2.83001809 0 0 Z " fill="#E1FCFC" transform="translate(95,77)"/>
<path d="M0 0 C0.66 0 1.32 0 2 0 C2.67354499 1.43429001 3.33859701 2.87257057 4 4.3125 C4.556875 5.51326172 4.556875 5.51326172 5.125 6.73828125 C6 9 6 9 6 12 C2.7 12 -0.6 12 -4 12 C-2.66666667 8 -1.33333333 4 0 0 Z " fill="#E3F7F3" transform="translate(341,164)"/>
<path d="M0 0 C0.66 0 1.32 0 2 0 C2.67354499 1.43429001 3.33859701 2.87257057 4 4.3125 C4.556875 5.51326172 4.556875 5.51326172 5.125 6.73828125 C6 9 6 9 6 12 C2.7 12 -0.6 12 -4 12 C-2.66666667 8 -1.33333333 4 0 0 Z " fill="#E3F7F3" transform="translate(341,82)"/>
<path d="M0 0 C1.65322266 0.01740234 1.65322266 0.01740234 3.33984375 0.03515625 C4.44457031 0.04417969 5.54929687 0.05320312 6.6875 0.0625 C7.54214844 0.07410156 8.39679687 0.08570312 9.27734375 0.09765625 C9.27734375 0.42765625 9.27734375 0.75765625 9.27734375 1.09765625 C5.97734375 1.42765625 2.67734375 1.75765625 -0.72265625 2.09765625 C-0.77164062 3.24105469 -0.820625 4.38445312 -0.87109375 5.5625 C-0.94610814 7.05341098 -1.02165653 8.54429517 -1.09765625 10.03515625 C-1.1440625 11.16727539 -1.1440625 11.16727539 -1.19140625 12.32226562 C-1.29528775 14.2527302 -1.50161239 16.17707706 -1.72265625 18.09765625 C-4.07924022 19.27594824 -5.24838861 19.14179997 -7.85546875 18.9765625 C-8.66113281 18.92822266 -9.46679688 18.87988281 -10.296875 18.83007812 C-11.13863281 18.77400391 -11.98039062 18.71792969 -12.84765625 18.66015625 C-14.12189453 18.5818457 -14.12189453 18.5818457 -15.421875 18.50195312 C-17.52244749 18.37214247 -19.62259816 18.23553885 -21.72265625 18.09765625 C-21.72265625 17.76765625 -21.72265625 17.43765625 -21.72265625 17.09765625 C-15.78265625 17.09765625 -9.84265625 17.09765625 -3.72265625 17.09765625 C-3.76222782 11.8770235 -3.76222782 11.8770235 -3.81274414 6.65649414 C-3.8198957 4.80331866 -3.77294145 2.95016317 -3.72265625 1.09765625 C-2.72265625 0.09765625 -2.72265625 0.09765625 0 0 Z " fill="#509685" transform="translate(510.72265625,67.90234375)"/>
<path d="M0 0 C4.62 0 9.24 0 14 0 C12 2 12 2 2 3 C1.67 12.24 1.34 21.48 1 31 C0.67 31 0.34 31 0 31 C0 20.77 0 10.54 0 0 Z " fill="#EEFEFD" transform="translate(455,79)"/>
<path d="M0 0 C0.33 0.99 0.66 1.98 1 3 C0.53980469 3.83789062 0.07960938 4.67578125 -0.39453125 5.5390625 C-2.54769608 10.18067818 -2.56124686 14.31765975 -2.6875 19.375 C-2.72166016 20.30183594 -2.75582031 21.22867188 -2.79101562 22.18359375 C-2.87299552 24.45560812 -2.94230494 26.72726104 -3 29 C-5.93411909 26.06588091 -5.42404734 22.93448249 -5.4375 19 C-5.44136719 18.23631104 -5.44523437 17.47262207 -5.44921875 16.68579102 C-5.31783379 10.21987193 -3.69338538 5.36859946 0 0 Z " fill="#378573" transform="translate(80,69)"/>
<path d="M0 0 C6.6 0 13.2 0 20 0 C20.66 1.98 21.32 3.96 22 6 C21.59225342 5.5155542 21.18450684 5.0311084 20.7644043 4.53198242 C18.61866351 2.66889629 17.57340154 2.58770927 14.76953125 2.48828125 C13.56586914 2.43510742 13.56586914 2.43510742 12.33789062 2.38085938 C11.50451172 2.35830078 10.67113281 2.33574219 9.8125 2.3125 C8.5450293 2.26125977 8.5450293 2.26125977 7.25195312 2.20898438 C5.16843351 2.12658529 3.08423784 2.06161355 1 2 C1 2.66 1 3.32 1 4 C0.34 4 -0.32 4 -1 4 C-0.67 2.68 -0.34 1.36 0 0 Z " fill="#C2E5DD" transform="translate(332,186)"/>
<path d="M0 0 C16.13960034 -0.56740782 16.13960034 -0.56740782 23 3 C23.33 3.66 23.66 4.32 24 5 C12.12 3.02 12.12 3.02 0 1 C0 0.67 0 0.34 0 0 Z " fill="#459481" transform="translate(162,67)"/>
<path d="M0 0 C3.96 0 7.92 0 12 0 C12 0.33 12 0.66 12 1 C8.37 1.66 4.74 2.32 1 3 C1 7.95 1 12.9 1 18 C0.67 18 0.34 18 0 18 C0 12.06 0 6.12 0 0 Z " fill="#398E79" transform="translate(476,68)"/>
<path d="M0 0 C-1 3 -1 3 -3 4 C-8.53846154 4.23076923 -8.53846154 4.23076923 -11 3 C-11 2.34 -11 1.68 -11 1 C-9.54182203 0.83197949 -8.0834516 0.66562857 -6.625 0.5 C-5.81289063 0.4071875 -5.00078125 0.314375 -4.1640625 0.21875 C-2 0 -2 0 0 0 Z " fill="#4B9D89" transform="translate(404,101)"/>
<path d="M0 0 C2.47717167 3.71575751 2.30345742 5.59986738 2 10 C1 12.9375 1 12.9375 0 15 C-0.33 15 -0.66 15 -1 15 C-0.67 10.05 -0.34 5.1 0 0 Z " fill="#4D9986" transform="translate(418,159)"/>
<path d="M0 0 C0 0.33 0 0.66 0 1 C-6.93 2.485 -6.93 2.485 -14 4 C-14 3.34 -14 2.68 -14 2 C-9.35150485 -0.3992233 -5.08913926 -0.19957409 0 0 Z " fill="#418F7C" transform="translate(124,69)"/>
<path d="M0 0 C0.33 0 0.66 0 1 0 C1.33292585 4.24480464 1.43885872 6.35542625 -1 9.9375 C-1.66 10.618125 -2.32 11.29875 -3 12 C-3.43200679 7.24792529 -1.98489083 4.21789302 0 0 Z " fill="#368D79" transform="translate(418,95)"/>
<path d="M0 0 C0.66 0.33 1.32 0.66 2 1 C0.35 3.64 -1.3 6.28 -3 9 C-3.33 7.68 -3.66 6.36 -4 5 C-2.0625 2.25 -2.0625 2.25 0 0 Z " fill="#DBF5F0" transform="translate(95,77)"/>
<path d="M0 0 C-0.33 0.99 -0.66 1.98 -1 3 C-7.93 2.505 -7.93 2.505 -15 2 C-15 1.67 -15 1.34 -15 1 C-12.8750734 0.83240016 -10.75005624 0.66594799 -8.625 0.5 C-7.44164062 0.4071875 -6.25828125 0.314375 -5.0390625 0.21875 C-3.36213157 0.09804546 -1.68126944 0 0 0 Z " fill="#489382" transform="translate(455,171)"/>
<path d="M0 0 C0.33 0 0.66 0 1 0 C1.25 5.625 1.25 5.625 -1 9 C-1.66 9 -2.32 9 -3 9 C-2.01 6.03 -1.02 3.06 0 0 Z " fill="#499784" transform="translate(329,78)"/>
<path d="M0 0 C1 3 1 3 -0.4375 6.1875 C-1.2109375 7.5796875 -1.2109375 7.5796875 -2 9 C-2.66 9 -3.32 9 -4 9 C-2.94124926 5.59687262 -1.99097846 2.98646769 0 0 Z " fill="#459380" transform="translate(80,69)"/>
</svg>
